<svg width="344pt" height="139pt" viewBox="0 0 344 139" xmlns="http://www.w3.org/2000/svg" xmlns:xlink="http://www.w3.org/1999/xlink">
<g id="graph0" class="graph" transform="scale(1 1) rotate(0) translate(4 134.8313)">
<title>g</title>
<polygon fill="#ffffff" stroke="transparent" points="-4,4 -4,-134.8313 339.7108,-134.8313 339.7108,4 -4,4"></polygon>
<!-- content bundle -->
<g id="node1" class="node">
<title>content bundle</title>
<polygon fill="none" stroke="#000000" points="217.0736,-130.8313 130.4421,-130.8313 130.4421,-134.8313 118.4421,-134.8313 118.4421,-94.8313 217.0736,-94.8313 217.0736,-130.8313"></polygon>
<polyline fill="none" stroke="#000000" points="118.4421,-130.8313 130.4421,-130.8313 "></polyline>
<text text-anchor="middle" x="167.7578" y="-108.6313" font-family="Times,serif" font-size="14.00" fill="#000000">content bundle</text>
</g>
<!-- markdown file(s)\n(.md) -->
<g id="node2" class="node">
<title>markdown file(s)\n(.md)</title>
<ellipse fill="none" stroke="#000000" cx="79.7578" cy="-29.4156" rx="79.5164" ry="29.3315"></ellipse>
<text text-anchor="middle" x="79.7578" y="-33.6156" font-family="Times,serif" font-size="14.00" fill="#000000">markdown file(s)</text>
<text text-anchor="middle" x="79.7578" y="-16.8156" font-family="Times,serif" font-size="14.00" fill="#000000">(.md)</text>
</g>
<!-- content bundle&#45;&gt;markdown file(s)\n(.md) -->
<g id="edge1" class="edge">
<title>content bundle-&gt;markdown file(s)\n(.md)</title>
<path fill="none" stroke="#000000" d="M148.6631,-94.7313C139.2166,-85.7769 127.4865,-74.6579 116.3981,-64.1472"></path>
<polygon fill="#000000" stroke="#000000" points="118.5255,-61.3412 108.8601,-57.0018 113.7098,-66.4215 118.5255,-61.3412"></polygon>
</g>
<!-- image file(s)\n (.jpg, .png, .svg) -->
<g id="node3" class="node">
<title>image file(s)\n (.jpg, .png, .svg)</title>
<ellipse fill="none" stroke="#000000" cx="256.7578" cy="-29.4156" rx="78.906" ry="29.3315"></ellipse>
<text text-anchor="middle" x="256.7578" y="-33.6156" font-family="Times,serif" font-size="14.00" fill="#000000">image file(s)</text>
<text text-anchor="middle" x="256.7578" y="-16.8156" font-family="Times,serif" font-size="14.00" fill="#000000"> (.jpg, .png, .svg)</text>
</g>
<!-- content bundle&#45;&gt;image file(s)\n (.jpg, .png, .svg) -->
<g id="edge2" class="edge">
<title>content bundle-&gt;image file(s)\n (.jpg, .png, .svg)</title>
<path fill="none" stroke="#000000" d="M187.0695,-94.7313C196.7152,-85.6909 208.7152,-74.4438 220.0245,-63.8442"></path>
<polygon fill="#000000" stroke="#000000" points="222.422,-66.394 227.3249,-57.0018 217.6351,-61.2866 222.422,-66.394"></polygon>
</g>
</g>
</svg>