<svg width="393pt" height="800pt" viewBox="0 0 393 800" xmlns="http://www.w3.org/2000/svg" xmlns:xlink="http://www.w3.org/1999/xlink">
<g id="graph0" class="graph" transform="scale(1 1) rotate(0) translate(4 796)">
<title>example</title>
<polygon fill="#ffffff" stroke="transparent" points="-4,4 -4,-796 388.5229,-796 388.5229,4 -4,4"></polygon>
<!-- c1 -->
<g id="node1" class="node">
<title>c1</title>
<polygon fill="none" stroke="#000000" points="345.9857,-792 303.9857,-792 303.9857,-796 291.9857,-796 291.9857,-756 345.9857,-756 345.9857,-792"></polygon>
<polyline fill="none" stroke="#000000" points="291.9857,-792 303.9857,-792 "></polyline>
<text text-anchor="middle" x="318.9857" y="-769.8" font-family="Times,serif" font-size="14.00" fill="#000000">c1</text>
</g>
<!-- c2 -->
<g id="node2" class="node">
<title>c2</title>
<polygon fill="none" stroke="#000000" points="345.9857,-738 303.9857,-738 303.9857,-742 291.9857,-742 291.9857,-702 345.9857,-702 345.9857,-738"></polygon>
<polyline fill="none" stroke="#000000" points="291.9857,-738 303.9857,-738 "></polyline>
<text text-anchor="middle" x="318.9857" y="-715.8" font-family="Times,serif" font-size="14.00" fill="#000000">c2</text>
</g>
<!-- ... -->
<g id="node3" class="node">
<title>...</title>
<polygon fill="none" stroke="#000000" points="345.9857,-684 303.9857,-684 303.9857,-688 291.9857,-688 291.9857,-648 345.9857,-648 345.9857,-684"></polygon>
<polyline fill="none" stroke="#000000" points="291.9857,-684 303.9857,-684 "></polyline>
<text text-anchor="middle" x="318.9857" y="-661.8" font-family="Times,serif" font-size="14.00" fill="#000000">...</text>
</g>
<!-- content -->
<g id="node4" class="node">
<title>content</title>
<ellipse fill="none" stroke="#000000" cx="39.4627" cy="-470" rx="39.4254" ry="18"></ellipse>
<text text-anchor="middle" x="39.4627" y="-465.8" font-family="Times,serif" font-size="14.00" fill="#000000">content</text>
</g>
<!-- cases -->
<g id="node5" class="node">
<title>cases</title>
<ellipse fill="none" stroke="#000000" cx="166.1869" cy="-672" rx="31.3159" ry="18"></ellipse>
<text text-anchor="middle" x="166.1869" y="-667.8" font-family="Times,serif" font-size="14.00" fill="#000000">cases</text>
</g>
<!-- content&#45;&gt;cases -->
<g id="edge1" class="edge">
<title>content-&gt;cases</title>
<path fill="none" stroke="#000000" d="M44.7616,-488.0514C54.6835,-519.6805 78.4162,-586.1112 114.9254,-632 121.0157,-639.6549 128.8565,-646.7108 136.5649,-652.696"></path>
<polygon fill="#000000" stroke="#000000" points="134.6598,-655.6395 144.7883,-658.7481 138.8089,-650.0018 134.6598,-655.6395"></polygon>
</g>
<!-- explore -->
<g id="node6" class="node">
<title>explore</title>
<polygon fill="none" stroke="#000000" points="195.1673,-623 149.2065,-623 149.2065,-627 137.2065,-627 137.2065,-587 195.1673,-587 195.1673,-623"></polygon>
<polyline fill="none" stroke="#000000" points="137.2065,-623 149.2065,-623 "></polyline>
<text text-anchor="middle" x="166.1869" y="-600.8" font-family="Times,serif" font-size="14.00" fill="#000000">explore</text>
</g>
<!-- content&#45;&gt;explore -->
<g id="edge5" class="edge">
<title>content-&gt;explore</title>
<path fill="none" stroke="#000000" d="M48.3306,-487.6415C60.6656,-510.7745 84.907,-551.5198 114.9254,-578 118.8785,-581.4871 123.3613,-584.678 127.9912,-587.5479"></path>
<polygon fill="#000000" stroke="#000000" points="126.554,-590.7571 136.9758,-592.6644 130.0181,-584.6743 126.554,-590.7571"></polygon>
</g>
<!-- home -->
<g id="node7" class="node">
<title>home</title>
<polygon fill="none" stroke="#000000" points="193.1869,-569 151.1869,-569 151.1869,-573 139.1869,-573 139.1869,-533 193.1869,-533 193.1869,-569"></polygon>
<polyline fill="none" stroke="#000000" points="139.1869,-569 151.1869,-569 "></polyline>
<text text-anchor="middle" x="166.1869" y="-546.8" font-family="Times,serif" font-size="14.00" fill="#000000">home</text>
</g>
<!-- content&#45;&gt;home -->
<g id="edge6" class="edge">
<title>content-&gt;home</title>
<path fill="none" stroke="#000000" d="M59.7634,-485.6786C74.6662,-496.9003 95.5953,-512.0701 114.9254,-524 119.6867,-526.9385 124.7991,-529.8748 129.8852,-532.6711"></path>
<polygon fill="#000000" stroke="#000000" points="128.4636,-535.8803 138.9303,-537.5234 131.7728,-529.7118 128.4636,-535.8803"></polygon>
</g>
<!-- methods -->
<g id="node8" class="node">
<title>methods</title>
<ellipse fill="none" stroke="#000000" cx="166.1869" cy="-497" rx="43.5214" ry="18"></ellipse>
<text text-anchor="middle" x="166.1869" y="-492.8" font-family="Times,serif" font-size="14.00" fill="#000000">methods</text>
</g>
<!-- content&#45;&gt;methods -->
<g id="edge7" class="edge">
<title>content-&gt;methods</title>
<path fill="none" stroke="#000000" d="M75.4378,-477.6649C88.3919,-480.4249 103.2372,-483.5879 117.1172,-486.5452"></path>
<polygon fill="#000000" stroke="#000000" points="116.5027,-489.9927 127.0125,-488.6535 117.9614,-483.1464 116.5027,-489.9927"></polygon>
</g>
<!-- references -->
<g id="node13" class="node">
<title>references</title>
<ellipse fill="none" stroke="#000000" cx="166.1869" cy="-443" rx="50.8979" ry="18"></ellipse>
<text text-anchor="middle" x="166.1869" y="-438.8" font-family="Times,serif" font-size="14.00" fill="#000000">references</text>
</g>
<!-- content&#45;&gt;references -->
<g id="edge12" class="edge">
<title>content-&gt;references</title>
<path fill="none" stroke="#000000" d="M75.4378,-462.3351C86.9856,-459.8747 100.0363,-457.0941 112.5662,-454.4245"></path>
<polygon fill="#000000" stroke="#000000" points="113.4136,-457.8226 122.4647,-452.3155 111.9549,-450.9762 113.4136,-457.8226"></polygon>
</g>
<!-- units -->
<g id="node17" class="node">
<title>units</title>
<ellipse fill="none" stroke="#000000" cx="166.1869" cy="-362" rx="29.6339" ry="18"></ellipse>
<text text-anchor="middle" x="166.1869" y="-357.8" font-family="Times,serif" font-size="14.00" fill="#000000">units</text>
</g>
<!-- content&#45;&gt;units -->
<g id="edge13" class="edge">
<title>content-&gt;units</title>
<path fill="none" stroke="#000000" d="M58.1613,-454.0642C80.0584,-435.4026 116.4351,-404.4007 140.853,-383.5907"></path>
<polygon fill="#000000" stroke="#000000" points="143.2965,-386.1069 148.6372,-376.9567 138.756,-380.7792 143.2965,-386.1069"></polygon>
</g>
<!-- vcards -->
<g id="node21" class="node">
<title>vcards</title>
<ellipse fill="none" stroke="#000000" cx="166.1869" cy="-207" rx="36.4761" ry="18"></ellipse>
<text text-anchor="middle" x="166.1869" y="-202.8" font-family="Times,serif" font-size="14.00" fill="#000000">vcards</text>
</g>
<!-- content&#45;&gt;vcards -->
<g id="edge17" class="edge">
<title>content-&gt;vcards</title>
<path fill="none" stroke="#000000" d="M47.9742,-452.3354C69.7072,-407.2314 127.355,-287.5907 153.2605,-233.8271"></path>
<polygon fill="#000000" stroke="#000000" points="156.5247,-235.1157 157.7125,-224.5877 150.2186,-232.0771 156.5247,-235.1157"></polygon>
</g>
<!-- vegetation -->
<g id="node24" class="node">
<title>vegetation</title>
<ellipse fill="none" stroke="#000000" cx="166.1869" cy="-72" rx="51.0242" ry="18"></ellipse>
<text text-anchor="middle" x="166.1869" y="-67.8" font-family="Times,serif" font-size="14.00" fill="#000000">vegetation</text>
</g>
<!-- content&#45;&gt;vegetation -->
<g id="edge21" class="edge">
<title>content-&gt;vegetation</title>
<path fill="none" stroke="#000000" d="M42.9137,-451.9904C52.0095,-405.8959 78.4695,-280.2246 114.9254,-180 125.308,-151.4562 140.5718,-120.2535 151.7431,-98.7597"></path>
<polygon fill="#000000" stroke="#000000" points="154.8479,-100.3754 156.4047,-89.8955 148.6524,-97.1172 154.8479,-100.3754"></polygon>
</g>
<!-- cases&#45;&gt;c1 -->
<g id="edge2" class="edge">
<title>cases-&gt;c1</title>
<path fill="none" stroke="#000000" d="M181.3804,-687.76C197.9075,-704.2208 225.6957,-729.97 253.4485,-747 262.4161,-752.5028 272.704,-757.3417 282.43,-761.3462"></path>
<polygon fill="#000000" stroke="#000000" points="281.3117,-764.6673 291.899,-765.0664 283.8714,-758.152 281.3117,-764.6673"></polygon>
</g>
<!-- cases&#45;&gt;c2 -->
<g id="edge3" class="edge">
<title>cases-&gt;c2</title>
<path fill="none" stroke="#000000" d="M193.8576,-680.6924C218.5976,-688.4642 255.038,-699.9116 282.2207,-708.4507"></path>
<polygon fill="#000000" stroke="#000000" points="281.1884,-711.795 291.7777,-711.4529 283.2863,-705.1168 281.1884,-711.795"></polygon>
</g>
<!-- cases&#45;&gt;... -->
<g id="edge4" class="edge">
<title>cases-&gt;...</title>
<path fill="none" stroke="#000000" d="M197.8469,-670.7568C222.2783,-669.7974 256.1343,-668.468 281.8451,-667.4584"></path>
<polygon fill="#000000" stroke="#000000" points="282.1075,-670.9509 291.9625,-667.0611 281.8328,-663.9563 282.1075,-670.9509"></polygon>
</g>
<!-- class -->
<g id="node9" class="node">
<title>class</title>
<polygon fill="none" stroke="#000000" points="345.9857,-630 303.9857,-630 303.9857,-634 291.9857,-634 291.9857,-594 345.9857,-594 345.9857,-630"></polygon>
<polyline fill="none" stroke="#000000" points="291.9857,-630 303.9857,-630 "></polyline>
<text text-anchor="middle" x="318.9857" y="-607.8" font-family="Times,serif" font-size="14.00" fill="#000000">class</text>
</g>
<!-- methods&#45;&gt;class -->
<g id="edge8" class="edge">
<title>methods-&gt;class</title>
<path fill="none" stroke="#000000" d="M197.2982,-509.867C204.4318,-513.731 211.6225,-518.4493 217.4485,-524 240.2402,-545.7152 229.6617,-564.3796 253.4485,-585 261.7632,-592.2079 272.2656,-597.6747 282.4128,-601.7372"></path>
<polygon fill="#000000" stroke="#000000" points="281.3559,-605.0771 291.9498,-605.213 283.7528,-598.5003 281.3559,-605.0771"></polygon>
</g>
<!-- evaluation -->
<g id="node10" class="node">
<title>evaluation</title>
<polygon fill="none" stroke="#000000" points="356.3019,-576 293.6694,-576 293.6694,-580 281.6694,-580 281.6694,-540 356.3019,-540 356.3019,-576"></polygon>
<polyline fill="none" stroke="#000000" points="281.6694,-576 293.6694,-576 "></polyline>
<text text-anchor="middle" x="318.9857" y="-553.8" font-family="Times,serif" font-size="14.00" fill="#000000">evaluation</text>
</g>
<!-- methods&#45;&gt;evaluation -->
<g id="edge9" class="edge">
<title>methods-&gt;evaluation</title>
<path fill="none" stroke="#000000" d="M197.8469,-509.6392C219.3773,-518.2345 248.2269,-529.7518 272.3711,-539.3906"></path>
<polygon fill="#000000" stroke="#000000" points="271.1242,-542.6614 281.7092,-543.1186 273.7196,-536.1603 271.1242,-542.6614"></polygon>
</g>
<!-- priorities -->
<g id="node11" class="node">
<title>priorities</title>
<polygon fill="none" stroke="#000000" points="352.03,-522 297.9413,-522 297.9413,-526 285.9413,-526 285.9413,-486 352.03,-486 352.03,-522"></polygon>
<polyline fill="none" stroke="#000000" points="285.9413,-522 297.9413,-522 "></polyline>
<text text-anchor="middle" x="318.9857" y="-499.8" font-family="Times,serif" font-size="14.00" fill="#000000">priorities</text>
</g>
<!-- methods&#45;&gt;priorities -->
<g id="edge10" class="edge">
<title>methods-&gt;priorities</title>
<path fill="none" stroke="#000000" d="M209.9729,-499.0059C230.6438,-499.9529 255.236,-501.0795 275.8266,-502.0228"></path>
<polygon fill="#000000" stroke="#000000" points="275.7324,-505.5221 285.8821,-502.4835 276.0528,-498.5294 275.7324,-505.5221"></polygon>
</g>
<!-- redbooks -->
<g id="node12" class="node">
<title>redbooks</title>
<polygon fill="none" stroke="#000000" points="352.8062,-468 297.1651,-468 297.1651,-472 285.1651,-472 285.1651,-432 352.8062,-432 352.8062,-468"></polygon>
<polyline fill="none" stroke="#000000" points="285.1651,-468 297.1651,-468 "></polyline>
<text text-anchor="middle" x="318.9857" y="-445.8" font-family="Times,serif" font-size="14.00" fill="#000000">redbooks</text>
</g>
<!-- methods&#45;&gt;redbooks -->
<g id="edge11" class="edge">
<title>methods-&gt;redbooks</title>
<path fill="none" stroke="#000000" d="M201.242,-486.2173C223.2911,-479.4351 251.9148,-470.6306 275.4187,-463.4009"></path>
<polygon fill="#000000" stroke="#000000" points="276.6153,-466.6948 285.1443,-460.4094 274.5572,-460.0042 276.6153,-466.6948"></polygon>
</g>
<!-- a -->
<g id="node14" class="node">
<title>a</title>
<polygon fill="none" stroke="#000000" points="345.9857,-414 303.9857,-414 303.9857,-418 291.9857,-418 291.9857,-378 345.9857,-378 345.9857,-414"></polygon>
<polyline fill="none" stroke="#000000" points="291.9857,-414 303.9857,-414 "></polyline>
<text text-anchor="middle" x="318.9857" y="-391.8" font-family="Times,serif" font-size="14.00" fill="#000000">a</text>
</g>
<!-- b -->
<g id="node15" class="node">
<title>b</title>
<polygon fill="none" stroke="#000000" points="345.9857,-360 303.9857,-360 303.9857,-364 291.9857,-364 291.9857,-324 345.9857,-324 345.9857,-360"></polygon>
<polyline fill="none" stroke="#000000" points="291.9857,-360 303.9857,-360 "></polyline>
<text text-anchor="middle" x="318.9857" y="-337.8" font-family="Times,serif" font-size="14.00" fill="#000000">b</text>
</g>
<!--  ...  -->
<g id="node16" class="node">
<title> ... </title>
<polygon fill="none" stroke="#000000" points="345.9857,-306 303.9857,-306 303.9857,-310 291.9857,-310 291.9857,-270 345.9857,-270 345.9857,-306"></polygon>
<polyline fill="none" stroke="#000000" points="291.9857,-306 303.9857,-306 "></polyline>
<text text-anchor="middle" x="318.9857" y="-283.8" font-family="Times,serif" font-size="14.00" fill="#000000"> ... </text>
</g>
<!-- units&#45;&gt;a -->
<g id="edge14" class="edge">
<title>units-&gt;a</title>
<path fill="none" stroke="#000000" d="M194.2126,-368.2361C218.8884,-373.7269 255.0015,-381.7626 282.0343,-387.7778"></path>
<polygon fill="#000000" stroke="#000000" points="281.3861,-391.2191 291.9076,-389.9747 282.9065,-384.3862 281.3861,-391.2191"></polygon>
</g>
<!-- units&#45;&gt;b -->
<g id="edge15" class="edge">
<title>units-&gt;b</title>
<path fill="none" stroke="#000000" d="M195.6481,-358.1438C220.2235,-354.9271 255.3784,-350.3256 281.8731,-346.8577"></path>
<polygon fill="#000000" stroke="#000000" points="282.4601,-350.3108 291.9213,-345.5425 281.5516,-343.37 282.4601,-350.3108"></polygon>
</g>
<!-- units&#45;&gt; ...  -->
<g id="edge16" class="edge">
<title>units-&gt; ... </title>
<path fill="none" stroke="#000000" d="M188.0995,-349.3819C205.5551,-339.5303 230.7447,-325.7558 253.4485,-315 262.79,-310.5745 273.0573,-306.1462 282.6371,-302.1935"></path>
<polygon fill="#000000" stroke="#000000" points="283.9819,-305.425 291.9279,-298.417 281.346,-298.9403 283.9819,-305.425"></polygon>
</g>
<!-- arbustales&#45;espinosos -->
<g id="node18" class="node">
<title>arbustales-espinosos</title>
<polygon fill="none" stroke="#000000" points="384.5601,-252 265.4112,-252 265.4112,-256 253.4112,-256 253.4112,-216 384.5601,-216 384.5601,-252"></polygon>
<polyline fill="none" stroke="#000000" points="253.4112,-252 265.4112,-252 "></polyline>
<text text-anchor="middle" x="318.9857" y="-229.8" font-family="Times,serif" font-size="14.00" fill="#000000">arbustales-espinosos</text>
</g>
<!-- arbustales&#45;riberenos -->
<g id="node19" class="node">
<title>arbustales-riberenos</title>
<polygon fill="none" stroke="#000000" points="383.207,-198 266.7644,-198 266.7644,-202 254.7644,-202 254.7644,-162 383.207,-162 383.207,-198"></polygon>
<polyline fill="none" stroke="#000000" points="254.7644,-198 266.7644,-198 "></polyline>
<text text-anchor="middle" x="318.9857" y="-175.8" font-family="Times,serif" font-size="14.00" fill="#000000">arbustales-riberenos</text>
</g>
<!--  ... -->
<g id="node20" class="node">
<title> ...</title>
<polygon fill="none" stroke="#000000" points="345.9857,-144 303.9857,-144 303.9857,-148 291.9857,-148 291.9857,-108 345.9857,-108 345.9857,-144"></polygon>
<polyline fill="none" stroke="#000000" points="291.9857,-144 303.9857,-144 "></polyline>
<text text-anchor="middle" x="318.9857" y="-121.8" font-family="Times,serif" font-size="14.00" fill="#000000"> ...</text>
</g>
<!-- vcards&#45;&gt;arbustales&#45;espinosos -->
<g id="edge18" class="edge">
<title>vcards-&gt;arbustales-espinosos</title>
<path fill="none" stroke="#000000" d="M200.4779,-213.0593C213.1318,-215.2953 228.0269,-217.9273 242.9058,-220.5565"></path>
<polygon fill="#000000" stroke="#000000" points="242.7198,-224.0777 253.1763,-222.3713 243.9379,-217.1845 242.7198,-224.0777"></polygon>
</g>
<!-- vcards&#45;&gt;arbustales&#45;riberenos -->
<g id="edge19" class="edge">
<title>vcards-&gt;arbustales-riberenos</title>
<path fill="none" stroke="#000000" d="M200.4779,-200.9407C213.6144,-198.6194 229.1662,-195.8714 244.6079,-193.1428"></path>
<polygon fill="#000000" stroke="#000000" points="245.4744,-196.544 254.7128,-191.3572 244.2563,-189.6508 245.4744,-196.544"></polygon>
</g>
<!-- vcards&#45;&gt; ... -->
<g id="edge20" class="edge">
<title>vcards-&gt; ...</title>
<path fill="none" stroke="#000000" d="M187.846,-192.2144C205.1618,-180.7365 230.2871,-164.8373 253.4485,-153 262.6529,-148.2958 272.873,-143.7718 282.4513,-139.8162"></path>
<polygon fill="#000000" stroke="#000000" points="283.7891,-143.0506 291.7543,-136.0644 281.171,-136.5587 283.7891,-143.0506"></polygon>
</g>
<!-- carto -->
<g id="node22" class="node">
<title>carto</title>
<polygon fill="none" stroke="#000000" points="345.9857,-90 303.9857,-90 303.9857,-94 291.9857,-94 291.9857,-54 345.9857,-54 345.9857,-90"></polygon>
<polyline fill="none" stroke="#000000" points="291.9857,-90 303.9857,-90 "></polyline>
<text text-anchor="middle" x="318.9857" y="-67.8" font-family="Times,serif" font-size="14.00" fill="#000000">carto</text>
</g>
<!-- formations -->
<g id="node23" class="node">
<title>formations</title>
<polygon fill="none" stroke="#000000" points="357.1387,-36 292.8327,-36 292.8327,-40 280.8327,-40 280.8327,0 357.1387,0 357.1387,-36"></polygon>
<polyline fill="none" stroke="#000000" points="280.8327,-36 292.8327,-36 "></polyline>
<text text-anchor="middle" x="318.9857" y="-13.8" font-family="Times,serif" font-size="14.00" fill="#000000">formations</text>
</g>
<!-- vegetation&#45;&gt;carto -->
<g id="edge22" class="edge">
<title>vegetation-&gt;carto</title>
<path fill="none" stroke="#000000" d="M217.4918,-72C238.4132,-72 262.159,-72 281.4195,-72"></path>
<polygon fill="#000000" stroke="#000000" points="281.6119,-75.5001 291.6118,-72 281.6118,-68.5001 281.6119,-75.5001"></polygon>
</g>
<!-- vegetation&#45;&gt;formations -->
<g id="edge23" class="edge">
<title>vegetation-&gt;formations</title>
<path fill="none" stroke="#000000" d="M202.3981,-59.2028C222.9238,-51.9489 248.8597,-42.783 271.0549,-34.939"></path>
<polygon fill="#000000" stroke="#000000" points="272.3707,-38.1862 280.633,-31.5541 270.0382,-31.5862 272.3707,-38.1862"></polygon>
</g>
</g>
</svg>