<svg width="393pt" height="908pt" viewBox="0 0 393 908" xmlns="http://www.w3.org/2000/svg" xmlns:xlink="http://www.w3.org/1999/xlink">
<g id="graph0" class="graph" transform="scale(1 1) rotate(0) translate(4 904)">
<title>content</title>
<polygon fill="#ffffff" stroke="transparent" points="-4,4 -4,-904 388.5229,-904 388.5229,4 -4,4"></polygon>
<!-- c1 -->
<g id="node1" class="node">
<title>c1</title>
<polygon fill="none" stroke="#000000" points="345.9857,-900 303.9857,-900 303.9857,-904 291.9857,-904 291.9857,-864 345.9857,-864 345.9857,-900"></polygon>
<polyline fill="none" stroke="#000000" points="291.9857,-900 303.9857,-900 "></polyline>
<text text-anchor="middle" x="318.9857" y="-877.8" font-family="Times,serif" font-size="14.00" fill="#000000">c1</text>
</g>
<!-- c2 -->
<g id="node2" class="node">
<title>c2</title>
<polygon fill="none" stroke="#000000" points="345.9857,-846 303.9857,-846 303.9857,-850 291.9857,-850 291.9857,-810 345.9857,-810 345.9857,-846"></polygon>
<polyline fill="none" stroke="#000000" points="291.9857,-846 303.9857,-846 "></polyline>
<text text-anchor="middle" x="318.9857" y="-823.8" font-family="Times,serif" font-size="14.00" fill="#000000">c2</text>
</g>
<!-- ... -->
<g id="node3" class="node">
<title>...</title>
<polygon fill="none" stroke="#000000" points="345.9857,-792 303.9857,-792 303.9857,-796 291.9857,-796 291.9857,-756 345.9857,-756 345.9857,-792"></polygon>
<polyline fill="none" stroke="#000000" points="291.9857,-792 303.9857,-792 "></polyline>
<text text-anchor="middle" x="318.9857" y="-769.8" font-family="Times,serif" font-size="14.00" fill="#000000">...</text>
</g>
<!-- content -->
<g id="node4" class="node">
<title>content</title>
<ellipse fill="none" stroke="#000000" cx="39.4627" cy="-490" rx="39.4254" ry="18"></ellipse>
<text text-anchor="middle" x="39.4627" y="-485.8" font-family="Times,serif" font-size="14.00" fill="#000000">content</text>
</g>
<!-- cases -->
<g id="node5" class="node">
<title>cases</title>
<ellipse fill="none" stroke="#000000" cx="166.1869" cy="-801" rx="31.3159" ry="18"></ellipse>
<text text-anchor="middle" x="166.1869" y="-796.8" font-family="Times,serif" font-size="14.00" fill="#000000">cases</text>
</g>
<!-- content&#45;&gt;cases -->
<g id="edge1" class="edge">
<title>content-&gt;cases</title>
<path fill="none" stroke="#000000" d="M42.7547,-507.9816C50.839,-549.5516 74.0448,-654.8038 114.9254,-734 122.8945,-749.4383 134.4851,-764.9553 144.6297,-777.1631"></path>
<polygon fill="#000000" stroke="#000000" points="142.2043,-779.7125 151.3597,-785.0444 147.5275,-775.1668 142.2043,-779.7125"></polygon>
</g>
<!-- explore -->
<g id="node6" class="node">
<title>explore</title>
<polygon fill="none" stroke="#000000" points="347.9661,-738 302.0053,-738 302.0053,-742 290.0053,-742 290.0053,-702 347.9661,-702 347.9661,-738"></polygon>
<polyline fill="none" stroke="#000000" points="290.0053,-738 302.0053,-738 "></polyline>
<text text-anchor="middle" x="318.9857" y="-715.8" font-family="Times,serif" font-size="14.00" fill="#000000">explore</text>
</g>
<!-- content&#45;&gt;explore -->
<g id="edge5" class="edge">
<title>content-&gt;explore</title>
<path fill="none" stroke="#000000" d="M49.0299,-507.5193C61.9559,-530.1565 86.6598,-569.9803 114.9254,-598 167.9431,-650.5565 187.7904,-657.4742 253.4485,-693 262.0435,-697.6505 271.6127,-702.014 280.7245,-705.821"></path>
<polygon fill="#000000" stroke="#000000" points="279.4119,-709.0655 289.9945,-709.5755 282.0398,-702.5774 279.4119,-709.0655"></polygon>
</g>
<!-- home -->
<g id="node7" class="node">
<title>home</title>
<polygon fill="none" stroke="#000000" points="345.9857,-684 303.9857,-684 303.9857,-688 291.9857,-688 291.9857,-648 345.9857,-648 345.9857,-684"></polygon>
<polyline fill="none" stroke="#000000" points="291.9857,-684 303.9857,-684 "></polyline>
<text text-anchor="middle" x="318.9857" y="-661.8" font-family="Times,serif" font-size="14.00" fill="#000000">home</text>
</g>
<!-- content&#45;&gt;home -->
<g id="edge6" class="edge">
<title>content-&gt;home</title>
<path fill="none" stroke="#000000" d="M58.8491,-505.753C95.2871,-534.8352 177.2032,-597.7458 253.4485,-639 262.621,-643.963 272.903,-648.5991 282.5546,-652.5808"></path>
<polygon fill="#000000" stroke="#000000" points="281.347,-655.8673 291.9316,-656.3322 283.9471,-649.3681 281.347,-655.8673"></polygon>
</g>
<!-- methods -->
<g id="node8" class="node">
<title>methods</title>
<ellipse fill="none" stroke="#000000" cx="166.1869" cy="-517" rx="43.5214" ry="18"></ellipse>
<text text-anchor="middle" x="166.1869" y="-512.8" font-family="Times,serif" font-size="14.00" fill="#000000">methods</text>
</g>
<!-- content&#45;&gt;methods -->
<g id="edge7" class="edge">
<title>content-&gt;methods</title>
<path fill="none" stroke="#000000" d="M75.4378,-497.6649C88.3919,-500.4249 103.2372,-503.5879 117.1172,-506.5452"></path>
<polygon fill="#000000" stroke="#000000" points="116.5027,-509.9927 127.0125,-508.6535 117.9614,-503.1464 116.5027,-509.9927"></polygon>
</g>
<!-- references -->
<g id="node13" class="node">
<title>references</title>
<ellipse fill="none" stroke="#000000" cx="166.1869" cy="-463" rx="50.8979" ry="18"></ellipse>
<text text-anchor="middle" x="166.1869" y="-458.8" font-family="Times,serif" font-size="14.00" fill="#000000">references</text>
</g>
<!-- content&#45;&gt;references -->
<g id="edge12" class="edge">
<title>content-&gt;references</title>
<path fill="none" stroke="#000000" d="M75.4378,-482.3351C86.9856,-479.8747 100.0363,-477.0941 112.5662,-474.4245"></path>
<polygon fill="#000000" stroke="#000000" points="113.4136,-477.8226 122.4647,-472.3155 111.9549,-470.9762 113.4136,-477.8226"></polygon>
</g>
<!-- units -->
<g id="node17" class="node">
<title>units</title>
<ellipse fill="none" stroke="#000000" cx="166.1869" cy="-382" rx="29.6339" ry="18"></ellipse>
<text text-anchor="middle" x="166.1869" y="-377.8" font-family="Times,serif" font-size="14.00" fill="#000000">units</text>
</g>
<!-- content&#45;&gt;units -->
<g id="edge13" class="edge">
<title>content-&gt;units</title>
<path fill="none" stroke="#000000" d="M58.1613,-474.0642C80.0584,-455.4026 116.4351,-424.4007 140.853,-403.5907"></path>
<polygon fill="#000000" stroke="#000000" points="143.2965,-406.1069 148.6372,-396.9567 138.756,-400.7792 143.2965,-406.1069"></polygon>
</g>
<!-- vcards -->
<g id="node21" class="node">
<title>vcards</title>
<ellipse fill="none" stroke="#000000" cx="166.1869" cy="-207" rx="36.4761" ry="18"></ellipse>
<text text-anchor="middle" x="166.1869" y="-202.8" font-family="Times,serif" font-size="14.00" fill="#000000">vcards</text>
</g>
<!-- content&#45;&gt;vcards -->
<g id="edge17" class="edge">
<title>content-&gt;vcards</title>
<path fill="none" stroke="#000000" d="M47.3899,-472.2971C68.9032,-424.2535 128.4871,-291.191 154.1613,-233.8556"></path>
<polygon fill="#000000" stroke="#000000" points="157.3702,-235.2534 158.2628,-224.6962 150.9815,-232.3926 157.3702,-235.2534"></polygon>
</g>
<!-- vegetation -->
<g id="node24" class="node">
<title>vegetation</title>
<ellipse fill="none" stroke="#000000" cx="166.1869" cy="-72" rx="51.0242" ry="18"></ellipse>
<text text-anchor="middle" x="166.1869" y="-67.8" font-family="Times,serif" font-size="14.00" fill="#000000">vegetation</text>
</g>
<!-- content&#45;&gt;vegetation -->
<g id="edge21" class="edge">
<title>content-&gt;vegetation</title>
<path fill="none" stroke="#000000" d="M42.5455,-471.8024C51.0322,-423.3948 76.6756,-287.7977 114.9254,-180 125.0823,-151.3751 140.3785,-120.1841 151.6189,-98.7151"></path>
<polygon fill="#000000" stroke="#000000" points="154.7205,-100.3371 156.3129,-89.8626 148.536,-97.0578 154.7205,-100.3371"></polygon>
</g>
<!-- cases&#45;&gt;c1 -->
<g id="edge2" class="edge">
<title>cases-&gt;c1</title>
<path fill="none" stroke="#000000" d="M186.4406,-814.8524C203.7836,-826.3893 229.6525,-842.8384 253.4485,-855 262.6529,-859.7042 272.873,-864.2282 282.4513,-868.1838"></path>
<polygon fill="#000000" stroke="#000000" points="281.171,-871.4413 291.7543,-871.9356 283.7891,-864.9494 281.171,-871.4413"></polygon>
</g>
<!-- cases&#45;&gt;c2 -->
<g id="edge3" class="edge">
<title>cases-&gt;c2</title>
<path fill="none" stroke="#000000" d="M196.375,-806.3343C220.9449,-810.6759 255.7287,-816.8223 281.9753,-821.4602"></path>
<polygon fill="#000000" stroke="#000000" points="281.4758,-824.926 291.9323,-823.2196 282.6939,-818.0328 281.4758,-824.926"></polygon>
</g>
<!-- cases&#45;&gt;... -->
<g id="edge4" class="edge">
<title>cases-&gt;...</title>
<path fill="none" stroke="#000000" d="M196.375,-795.6657C220.9449,-791.3241 255.7287,-785.1777 281.9753,-780.5398"></path>
<polygon fill="#000000" stroke="#000000" points="282.6939,-783.9672 291.9323,-778.7804 281.4758,-777.074 282.6939,-783.9672"></polygon>
</g>
<!-- class -->
<g id="node9" class="node">
<title>class</title>
<polygon fill="none" stroke="#000000" points="345.9857,-630 303.9857,-630 303.9857,-634 291.9857,-634 291.9857,-594 345.9857,-594 345.9857,-630"></polygon>
<polyline fill="none" stroke="#000000" points="291.9857,-630 303.9857,-630 "></polyline>
<text text-anchor="middle" x="318.9857" y="-607.8" font-family="Times,serif" font-size="14.00" fill="#000000">class</text>
</g>
<!-- methods&#45;&gt;class -->
<g id="edge8" class="edge">
<title>methods-&gt;class</title>
<path fill="none" stroke="#000000" d="M184.1978,-533.4176C201.1487,-548.2701 227.7086,-570.0435 253.4485,-585 262.4658,-590.2397 272.6954,-594.9692 282.3463,-598.9522"></path>
<polygon fill="#000000" stroke="#000000" points="281.152,-602.2437 291.7379,-602.6775 283.733,-595.7369 281.152,-602.2437"></polygon>
</g>
<!-- evaluation -->
<g id="node10" class="node">
<title>evaluation</title>
<polygon fill="none" stroke="#000000" points="356.3019,-576 293.6694,-576 293.6694,-580 281.6694,-580 281.6694,-540 356.3019,-540 356.3019,-576"></polygon>
<polyline fill="none" stroke="#000000" points="281.6694,-576 293.6694,-576 "></polyline>
<text text-anchor="middle" x="318.9857" y="-553.8" font-family="Times,serif" font-size="14.00" fill="#000000">evaluation</text>
</g>
<!-- methods&#45;&gt;evaluation -->
<g id="edge9" class="edge">
<title>methods-&gt;evaluation</title>
<path fill="none" stroke="#000000" d="M203.1752,-526.925C223.8552,-532.4739 249.8403,-539.4464 271.9536,-545.38"></path>
<polygon fill="#000000" stroke="#000000" points="271.2429,-548.8131 281.8084,-548.0243 273.0571,-542.0522 271.2429,-548.8131"></polygon>
</g>
<!-- priorities -->
<g id="node11" class="node">
<title>priorities</title>
<polygon fill="none" stroke="#000000" points="352.03,-522 297.9413,-522 297.9413,-526 285.9413,-526 285.9413,-486 352.03,-486 352.03,-522"></polygon>
<polyline fill="none" stroke="#000000" points="285.9413,-522 297.9413,-522 "></polyline>
<text text-anchor="middle" x="318.9857" y="-499.8" font-family="Times,serif" font-size="14.00" fill="#000000">priorities</text>
</g>
<!-- methods&#45;&gt;priorities -->
<g id="edge10" class="edge">
<title>methods-&gt;priorities</title>
<path fill="none" stroke="#000000" d="M209.1565,-513.3442C229.8468,-511.5839 254.6117,-509.4769 275.384,-507.7096"></path>
<polygon fill="#000000" stroke="#000000" points="275.8643,-511.1815 285.5316,-506.8463 275.2708,-504.2067 275.8643,-511.1815"></polygon>
</g>
<!-- redbooks -->
<g id="node12" class="node">
<title>redbooks</title>
<polygon fill="none" stroke="#000000" points="352.8062,-468 297.1651,-468 297.1651,-472 285.1651,-472 285.1651,-432 352.8062,-432 352.8062,-468"></polygon>
<polyline fill="none" stroke="#000000" points="285.1651,-468 297.1651,-468 "></polyline>
<text text-anchor="middle" x="318.9857" y="-445.8" font-family="Times,serif" font-size="14.00" fill="#000000">redbooks</text>
</g>
<!-- methods&#45;&gt;redbooks -->
<g id="edge11" class="edge">
<title>methods-&gt;redbooks</title>
<path fill="none" stroke="#000000" d="M195.1468,-503.3817C212.0719,-495.5089 233.8873,-485.5089 253.4485,-477 260.6687,-473.8593 268.3738,-470.6019 275.8703,-467.4823"></path>
<polygon fill="#000000" stroke="#000000" points="277.2984,-470.6793 285.2021,-463.6237 274.6235,-464.2104 277.2984,-470.6793"></polygon>
</g>
<!-- a -->
<g id="node14" class="node">
<title>a</title>
<polygon fill="none" stroke="#000000" points="345.9857,-414 303.9857,-414 303.9857,-418 291.9857,-418 291.9857,-378 345.9857,-378 345.9857,-414"></polygon>
<polyline fill="none" stroke="#000000" points="291.9857,-414 303.9857,-414 "></polyline>
<text text-anchor="middle" x="318.9857" y="-391.8" font-family="Times,serif" font-size="14.00" fill="#000000">a</text>
</g>
<!-- b -->
<g id="node15" class="node">
<title>b</title>
<polygon fill="none" stroke="#000000" points="345.9857,-360 303.9857,-360 303.9857,-364 291.9857,-364 291.9857,-324 345.9857,-324 345.9857,-360"></polygon>
<polyline fill="none" stroke="#000000" points="291.9857,-360 303.9857,-360 "></polyline>
<text text-anchor="middle" x="318.9857" y="-337.8" font-family="Times,serif" font-size="14.00" fill="#000000">b</text>
</g>
<!--  ...  -->
<g id="node16" class="node">
<title> ... </title>
<polygon fill="none" stroke="#000000" points="345.9857,-306 303.9857,-306 303.9857,-310 291.9857,-310 291.9857,-270 345.9857,-270 345.9857,-306"></polygon>
<polyline fill="none" stroke="#000000" points="291.9857,-306 303.9857,-306 "></polyline>
<text text-anchor="middle" x="318.9857" y="-283.8" font-family="Times,serif" font-size="14.00" fill="#000000"> ... </text>
</g>
<!-- units&#45;&gt;a -->
<g id="edge14" class="edge">
<title>units-&gt;a</title>
<path fill="none" stroke="#000000" d="M196.0108,-384.7326C220.5459,-386.9806 255.4442,-390.1781 281.8004,-392.5929"></path>
<polygon fill="#000000" stroke="#000000" points="281.5227,-396.0821 291.8004,-393.5092 282.1615,-389.1113 281.5227,-396.0821"></polygon>
</g>
<!-- units&#45;&gt;b -->
<g id="edge15" class="edge">
<title>units-&gt;b</title>
<path fill="none" stroke="#000000" d="M193.8576,-374.7563C218.4891,-368.3082 254.7185,-358.824 281.8625,-351.7182"></path>
<polygon fill="#000000" stroke="#000000" points="282.9901,-355.041 291.7777,-349.1226 281.2173,-348.2692 282.9901,-355.041"></polygon>
</g>
<!-- units&#45;&gt; ...  -->
<g id="edge16" class="edge">
<title>units-&gt; ... </title>
<path fill="none" stroke="#000000" d="M182.9443,-366.963C199.8467,-352.3368 227.1359,-330.1634 253.4485,-315 262.4845,-309.7927 272.7204,-305.0741 282.3714,-301.0913"></path>
<polygon fill="#000000" stroke="#000000" points="283.7588,-304.3063 291.7613,-297.3629 281.1755,-297.8004 283.7588,-304.3063"></polygon>
</g>
<!-- arbustales&#45;espinosos -->
<g id="node18" class="node">
<title>arbustales-espinosos</title>
<polygon fill="none" stroke="#000000" points="384.5601,-252 265.4112,-252 265.4112,-256 253.4112,-256 253.4112,-216 384.5601,-216 384.5601,-252"></polygon>
<polyline fill="none" stroke="#000000" points="253.4112,-252 265.4112,-252 "></polyline>
<text text-anchor="middle" x="318.9857" y="-229.8" font-family="Times,serif" font-size="14.00" fill="#000000">arbustales-espinosos</text>
</g>
<!-- arbustales&#45;riberenos -->
<g id="node19" class="node">
<title>arbustales-riberenos</title>
<polygon fill="none" stroke="#000000" points="383.207,-198 266.7644,-198 266.7644,-202 254.7644,-202 254.7644,-162 383.207,-162 383.207,-198"></polygon>
<polyline fill="none" stroke="#000000" points="254.7644,-198 266.7644,-198 "></polyline>
<text text-anchor="middle" x="318.9857" y="-175.8" font-family="Times,serif" font-size="14.00" fill="#000000">arbustales-riberenos</text>
</g>
<!--  ... -->
<g id="node20" class="node">
<title> ...</title>
<polygon fill="none" stroke="#000000" points="345.9857,-144 303.9857,-144 303.9857,-148 291.9857,-148 291.9857,-108 345.9857,-108 345.9857,-144"></polygon>
<polyline fill="none" stroke="#000000" points="291.9857,-144 303.9857,-144 "></polyline>
<text text-anchor="middle" x="318.9857" y="-121.8" font-family="Times,serif" font-size="14.00" fill="#000000"> ...</text>
</g>
<!-- vcards&#45;&gt;arbustales&#45;espinosos -->
<g id="edge18" class="edge">
<title>vcards-&gt;arbustales-espinosos</title>
<path fill="none" stroke="#000000" d="M200.4779,-213.0593C213.1318,-215.2953 228.0269,-217.9273 242.9058,-220.5565"></path>
<polygon fill="#000000" stroke="#000000" points="242.7198,-224.0777 253.1763,-222.3713 243.9379,-217.1845 242.7198,-224.0777"></polygon>
</g>
<!-- vcards&#45;&gt;arbustales&#45;riberenos -->
<g id="edge19" class="edge">
<title>vcards-&gt;arbustales-riberenos</title>
<path fill="none" stroke="#000000" d="M200.4779,-200.9407C213.6144,-198.6194 229.1662,-195.8714 244.6079,-193.1428"></path>
<polygon fill="#000000" stroke="#000000" points="245.4744,-196.544 254.7128,-191.3572 244.2563,-189.6508 245.4744,-196.544"></polygon>
</g>
<!-- vcards&#45;&gt; ... -->
<g id="edge20" class="edge">
<title>vcards-&gt; ...</title>
<path fill="none" stroke="#000000" d="M187.846,-192.2144C205.1618,-180.7365 230.2871,-164.8373 253.4485,-153 262.6529,-148.2958 272.873,-143.7718 282.4513,-139.8162"></path>
<polygon fill="#000000" stroke="#000000" points="283.7891,-143.0506 291.7543,-136.0644 281.171,-136.5587 283.7891,-143.0506"></polygon>
</g>
<!-- carto -->
<g id="node22" class="node">
<title>carto</title>
<polygon fill="none" stroke="#000000" points="345.9857,-90 303.9857,-90 303.9857,-94 291.9857,-94 291.9857,-54 345.9857,-54 345.9857,-90"></polygon>
<polyline fill="none" stroke="#000000" points="291.9857,-90 303.9857,-90 "></polyline>
<text text-anchor="middle" x="318.9857" y="-67.8" font-family="Times,serif" font-size="14.00" fill="#000000">carto</text>
</g>
<!-- formations -->
<g id="node23" class="node">
<title>formations</title>
<polygon fill="none" stroke="#000000" points="357.1387,-36 292.8327,-36 292.8327,-40 280.8327,-40 280.8327,0 357.1387,0 357.1387,-36"></polygon>
<polyline fill="none" stroke="#000000" points="280.8327,-36 292.8327,-36 "></polyline>
<text text-anchor="middle" x="318.9857" y="-13.8" font-family="Times,serif" font-size="14.00" fill="#000000">formations</text>
</g>
<!-- vegetation&#45;&gt;carto -->
<g id="edge22" class="edge">
<title>vegetation-&gt;carto</title>
<path fill="none" stroke="#000000" d="M217.4918,-72C238.4132,-72 262.159,-72 281.4195,-72"></path>
<polygon fill="#000000" stroke="#000000" points="281.6119,-75.5001 291.6118,-72 281.6118,-68.5001 281.6119,-75.5001"></polygon>
</g>
<!-- vegetation&#45;&gt;formations -->
<g id="edge23" class="edge">
<title>vegetation-&gt;formations</title>
<path fill="none" stroke="#000000" d="M202.3981,-59.2028C222.9238,-51.9489 248.8597,-42.783 271.0549,-34.939"></path>
<polygon fill="#000000" stroke="#000000" points="272.3707,-38.1862 280.633,-31.5541 270.0382,-31.5862 272.3707,-38.1862"></polygon>
</g>
</g>
</svg>