<svg xmlns="http://www.w3.org/2000/svg" viewBox="0 0 191 194"><path d="M4 194l2-2 3-3 2-2 3-2 2-3 3-2 2-3 2-3 3-2 2-3 2-3 3-2 2-3 2-2 3-2 2-3 3-3 3-4 3-3 3-3 3-3 3-4 3-3 2-3 3-3 3-3 3-3 3-3 3-4 3-3 3-3 3-3 1-1 2-2 1-1 1-1 2-1 1-1 1-2 1-1 1-1 1-1 1-1 2-2 1-1 1-1 1-1 1-1v-1h1v-1h1v-1h1l7 4 12 7-2 2v1h1l15-11h2v-2l14-9 1-1 1-1 1-1 2-1 1-1 1-2 1-1 2-1 1-1 1-1 1-1 2-1h1l2-1 1-1 1-1 3-2 6-3 2-2-7-9-2-1-2-2-2-1-1-2-2-2-1-2-2-1-1-2-1-2h-2L141 0l-3 3-3 3-2 3-3 3-2 4-2 3-3 3-2 4-3 3-2 3-3 4-2 3-3 3-3 4-3 3-3 3-1-1-2 2v3h-1v2h-1v2l1 1h1v1l1 1v1l1 1v1l7 10-2 3-2 3-3 3-2 2-2 3-3 3-2 2-3 3-2 2-3 3-2 3-3 2-3 3-2 3-3 2-2 3-3 2-2 2-2 2-2 2-2 2-2 3-2 2-2 2-2 2-2 2-2 2-2 2-2 3-2 2-1 2-2 2-2 2-2 2-2 2-2 3-2 2-2 2-2 2-2 2-2 2-2 2-2 2-2 2-2 2-2 2-2 2-2 3v1l-1 1v1l-1 1v2h2v1h2z"/><path d="M5 189l11-11-1 1-2 1-2 2-1 1-2 2-1 2-1 1-1 1zM132 89l2-2v-1l-1-1-3 2v1l1 1h1zM126 85l3-3v-1h-1v-1h-2l-3 3 1 1 1 1h1z" fill="#fff"/><circle cx="138" r="2" cy="82" fill="#fff"/><circle cx="120" r="3" cy="78" fill="#fff"/><circle cx="133" r="3" cy="77" fill="#fff"/><circle cx="146" r="3" cy="76" fill="#fff"/><circle cx="115" r="3" cy="73" fill="#fff"/><circle cx="127" r="2" cy="72" fill="#fff"/><path d="M107 74h1v-1l-1-1-1-1v3h1z" fill="#fff"/><circle cx="140" r="3" cy="71" fill="#fff"/><path d="M153 73h1v-1l1-1 1-1-3-3h-1l-2 3 2 4v-1h1z" fill="#fff"/><circle cx="110" r="2" cy="68" fill="#fff"/><circle cx="122" r="3" cy="66" fill="#fff"/><path d="M134 68l3-3v-2h-1v-1h-1l-4 4 2 2h1z" fill="#fff"/><circle cx="105" r="2" cy="64" fill="#fff"/><path d="M147 67h1v-1h1v-1l1-1-2-2-4 2 3 3z" fill="#fff"/><circle cx="158" r="2" cy="65" fill="#fff"/><circle cx="117" r="3" cy="61" fill="#fff"/><circle cx="129" r="3" cy="60" fill="#fff"/><circle cx="165" r="4" cy="60" fill="#fff"/><path d="M100 63l3-4-1-1v-1h-1l-1-1v1h-1l-1 1v2l2 3z" fill="#fff"/><circle cx="142" r="3" cy="58" fill="#fff"/><path d="M154 61l1-1v-1l-1-1-1-1h-1l-1 1v1l2 3 1-1z" fill="#fff"/><circle cx="111" r="3" cy="56" fill="#fff"/><path d="M123 58l4-5h-1v-1l-1-1-5 4 2 3h1zM158 57l5-4-2-2-6 3 1 1v1h1v1h1zM173 57l4-2-4-4-4 2 4 4zM105 56l4-5-2-3-4 5v1l1 1 1 1z" fill="#fff"/><circle cx="136" r="3" cy="53" fill="#fff"/><path d="M148 56h1v-1l1-1-3-3h-1l-1 1v1l3 3z" fill="#fff"/><circle cx="118" r="3" cy="49" fill="#fff"/><ellipse cx="181" rx="5" cy="48" ry="3" fill="#fff"/><circle cx="154" r="4" cy="48" fill="#fff"/><path d="M167 51l3-4-1-3-1 1h-2l-1 1v1h-1v1l2 3h1z" fill="#fff"/><circle cx="130" r="2" cy="47" fill="#fff"/><path d="M142 50h1l1-1v-1l-2-3h-1v1l-2 2 1 1 1 1h1z" fill="#fff"/><circle cx="113" r="3" cy="44" fill="#fff"/><circle cx="124" r="3" cy="42" fill="#fff"/><circle cx="136" r="3" cy="42" fill="#fff"/><path d="M148 45l4-4v-1h-1v-1h-1l-1-1-1 1-1 1-1 1-1 1 3 3z" fill="#fff"/><circle cx="161" r="3" cy="41" fill="#fff"/><circle cx="174" r="3" cy="41" fill="#fff"/><circle cx="118" r="2" cy="36" fill="#fff"/><path d="M131 39l2-3-2-3v-1h-2l-1 1v1l-1 1v1l3 3h1z" fill="#fff"/><circle cx="142" r="3" cy="35" fill="#fff"/><path d="M155 38h1v-1l1-1 1-1 1-1-3-3-1 1-1 1-1 1-1 1 3 3z" fill="#fff"/><circle cx="168" r="4" cy="35" fill="#fff"/><circle cx="124" r="3" cy="29" fill="#fff"/><circle cx="136" r="4" cy="29" fill="#fff"/><circle cx="149" r="3" cy="29" fill="#fff"/><circle cx="162" r="3" cy="28" fill="#fff"/><circle cx="142" r="4" cy="22" fill="#fff"/><circle cx="129" r="2" cy="22" fill="#fff"/><circle cx="156" r="3" cy="22" fill="#fff"/><circle cx="136" r="4" cy="15" fill="#fff"/><path d="M151 19l1-1v-1l-4-7-1 1-1 1h-1v2l5 5h1z" fill="#fff"/><circle cx="141" r="3" cy="7" fill="#fff"/></svg>